<mxfile host="Electron" agent="Mozilla/5.0 (Windows NT 10.0; Win64; x64) AppleWebKit/537.36 (KHTML, like Gecko) draw.io/24.7.17 Chrome/128.0.6613.36 Electron/32.0.1 Safari/537.36" version="24.7.17" pages="7">
  <diagram id="jX26VBYKbBGTcmmh4BR7" name="Menu Utama">
    <mxGraphModel dx="1003" dy="1240" grid="1" gridSize="10" guides="1" tooltips="1" connect="1" arrows="1" fold="1" page="1" pageScale="1" pageWidth="850" pageHeight="1100" math="0" shadow="0">
      <root>
        <mxCell id="0" />
        <mxCell id="1" parent="0" />
        <mxCell id="Ur9wYiCswJF-98dy_9E3-4" value="" style="edgeStyle=orthogonalEdgeStyle;rounded=0;orthogonalLoop=1;jettySize=auto;html=1;" parent="1" source="Ur9wYiCswJF-98dy_9E3-1" target="Ur9wYiCswJF-98dy_9E3-2" edge="1">
          <mxGeometry relative="1" as="geometry" />
        </mxCell>
        <mxCell id="Ur9wYiCswJF-98dy_9E3-1" value="START" style="strokeWidth=2;html=1;shape=mxgraph.flowchart.start_1;whiteSpace=wrap;" parent="1" vertex="1">
          <mxGeometry x="375" y="40" width="100" height="60" as="geometry" />
        </mxCell>
        <mxCell id="xBh8vlri9Q0HdF-XC32j-1" value="" style="edgeStyle=orthogonalEdgeStyle;rounded=0;orthogonalLoop=1;jettySize=auto;html=1;" parent="1" source="Ur9wYiCswJF-98dy_9E3-2" target="12rXXI3SdJFbBXDemF2d-1" edge="1">
          <mxGeometry relative="1" as="geometry" />
        </mxCell>
        <mxCell id="Ur9wYiCswJF-98dy_9E3-2" value="Menu Utama&lt;div&gt;1. Register&lt;/div&gt;&lt;div&gt;2. Login&lt;/div&gt;&lt;div&gt;3. Keluar&lt;/div&gt;" style="shape=parallelogram;html=1;strokeWidth=2;perimeter=parallelogramPerimeter;whiteSpace=wrap;rounded=1;arcSize=12;size=0.23;" parent="1" vertex="1">
          <mxGeometry x="323" y="160" width="205" height="80" as="geometry" />
        </mxCell>
        <mxCell id="Ur9wYiCswJF-98dy_9E3-3" value="" style="endArrow=classic;html=1;rounded=0;" parent="1" edge="1">
          <mxGeometry width="50" height="50" relative="1" as="geometry">
            <mxPoint x="458" y="230" as="sourcePoint" />
            <mxPoint x="528" y="230" as="targetPoint" />
          </mxGeometry>
        </mxCell>
        <mxCell id="xBh8vlri9Q0HdF-XC32j-3" value="" style="edgeStyle=orthogonalEdgeStyle;rounded=0;orthogonalLoop=1;jettySize=auto;html=1;" parent="1" source="12rXXI3SdJFbBXDemF2d-1" target="xBh8vlri9Q0HdF-XC32j-2" edge="1">
          <mxGeometry relative="1" as="geometry" />
        </mxCell>
        <mxCell id="xBh8vlri9Q0HdF-XC32j-7" value="" style="edgeStyle=orthogonalEdgeStyle;rounded=0;orthogonalLoop=1;jettySize=auto;html=1;" parent="1" source="12rXXI3SdJFbBXDemF2d-1" target="xBh8vlri9Q0HdF-XC32j-6" edge="1">
          <mxGeometry relative="1" as="geometry" />
        </mxCell>
        <mxCell id="12rXXI3SdJFbBXDemF2d-1" value="Pilihan == 1" style="strokeWidth=2;html=1;shape=mxgraph.flowchart.decision;whiteSpace=wrap;" parent="1" vertex="1">
          <mxGeometry x="375" y="300" width="100" height="100" as="geometry" />
        </mxCell>
        <mxCell id="xBh8vlri9Q0HdF-XC32j-2" value="" style="verticalLabelPosition=bottom;verticalAlign=top;html=1;shape=mxgraph.flowchart.on-page_reference;" parent="1" vertex="1">
          <mxGeometry x="540" y="320" width="60" height="60" as="geometry" />
        </mxCell>
        <mxCell id="xBh8vlri9Q0HdF-XC32j-9" value="" style="edgeStyle=orthogonalEdgeStyle;rounded=0;orthogonalLoop=1;jettySize=auto;html=1;" parent="1" source="xBh8vlri9Q0HdF-XC32j-6" target="xBh8vlri9Q0HdF-XC32j-8" edge="1">
          <mxGeometry relative="1" as="geometry" />
        </mxCell>
        <mxCell id="xBh8vlri9Q0HdF-XC32j-12" value="" style="edgeStyle=orthogonalEdgeStyle;rounded=0;orthogonalLoop=1;jettySize=auto;html=1;" parent="1" source="xBh8vlri9Q0HdF-XC32j-6" target="xBh8vlri9Q0HdF-XC32j-10" edge="1">
          <mxGeometry relative="1" as="geometry" />
        </mxCell>
        <mxCell id="xBh8vlri9Q0HdF-XC32j-6" value="Pilihan == 2" style="strokeWidth=2;html=1;shape=mxgraph.flowchart.decision;whiteSpace=wrap;" parent="1" vertex="1">
          <mxGeometry x="375" y="460" width="100" height="100" as="geometry" />
        </mxCell>
        <mxCell id="U9IUA6c9v1QzmD8yPWSd-8" value="" style="edgeStyle=orthogonalEdgeStyle;rounded=0;orthogonalLoop=1;jettySize=auto;html=1;" parent="1" source="xBh8vlri9Q0HdF-XC32j-8" target="U9IUA6c9v1QzmD8yPWSd-7" edge="1">
          <mxGeometry relative="1" as="geometry" />
        </mxCell>
        <mxCell id="CeYfMiFbEmXjwuUwqjJn-2" value="" style="edgeStyle=orthogonalEdgeStyle;rounded=0;orthogonalLoop=1;jettySize=auto;html=1;" parent="1" source="xBh8vlri9Q0HdF-XC32j-8" target="CeYfMiFbEmXjwuUwqjJn-1" edge="1">
          <mxGeometry relative="1" as="geometry" />
        </mxCell>
        <mxCell id="xBh8vlri9Q0HdF-XC32j-8" value="Pilihan == 3" style="strokeWidth=2;html=1;shape=mxgraph.flowchart.decision;whiteSpace=wrap;" parent="1" vertex="1">
          <mxGeometry x="375" y="640" width="100" height="100" as="geometry" />
        </mxCell>
        <mxCell id="xBh8vlri9Q0HdF-XC32j-10" value="" style="verticalLabelPosition=bottom;verticalAlign=top;html=1;shape=mxgraph.flowchart.on-page_reference;" parent="1" vertex="1">
          <mxGeometry x="540" y="480" width="60" height="60" as="geometry" />
        </mxCell>
        <mxCell id="U9IUA6c9v1QzmD8yPWSd-1" value="B2" style="text;html=1;align=center;verticalAlign=middle;resizable=0;points=[];autosize=1;strokeColor=none;fillColor=none;" parent="1" vertex="1">
          <mxGeometry x="550" y="335" width="40" height="30" as="geometry" />
        </mxCell>
        <mxCell id="U9IUA6c9v1QzmD8yPWSd-2" value="B3" style="text;html=1;align=center;verticalAlign=middle;resizable=0;points=[];autosize=1;strokeColor=none;fillColor=none;" parent="1" vertex="1">
          <mxGeometry x="550" y="495" width="40" height="30" as="geometry" />
        </mxCell>
        <mxCell id="CeYfMiFbEmXjwuUwqjJn-9" value="" style="edgeStyle=orthogonalEdgeStyle;rounded=0;orthogonalLoop=1;jettySize=auto;html=1;" parent="1" source="U9IUA6c9v1QzmD8yPWSd-7" target="CeYfMiFbEmXjwuUwqjJn-4" edge="1">
          <mxGeometry relative="1" as="geometry" />
        </mxCell>
        <mxCell id="U9IUA6c9v1QzmD8yPWSd-7" value="Pilihan == &amp;lt;3" style="strokeWidth=2;html=1;shape=mxgraph.flowchart.decision;whiteSpace=wrap;" parent="1" vertex="1">
          <mxGeometry x="375" y="820" width="100" height="100" as="geometry" />
        </mxCell>
        <mxCell id="Tv0OW6yaN0TGf_5YFHfQ-3" value="" style="edgeStyle=orthogonalEdgeStyle;rounded=0;orthogonalLoop=1;jettySize=auto;html=1;" parent="1" source="Tv0OW6yaN0TGf_5YFHfQ-1" target="Ur9wYiCswJF-98dy_9E3-2" edge="1">
          <mxGeometry relative="1" as="geometry" />
        </mxCell>
        <mxCell id="Tv0OW6yaN0TGf_5YFHfQ-1" value="" style="verticalLabelPosition=bottom;verticalAlign=top;html=1;shape=mxgraph.flowchart.on-page_reference;" parent="1" vertex="1">
          <mxGeometry x="180" y="170" width="60" height="60" as="geometry" />
        </mxCell>
        <mxCell id="Tv0OW6yaN0TGf_5YFHfQ-2" value="B1" style="text;html=1;align=center;verticalAlign=middle;resizable=0;points=[];autosize=1;strokeColor=none;fillColor=none;" parent="1" vertex="1">
          <mxGeometry x="190" y="185" width="40" height="30" as="geometry" />
        </mxCell>
        <mxCell id="CeYfMiFbEmXjwuUwqjJn-1" value="Program Selesai,&lt;div&gt;Terima Kasih&amp;nbsp;&lt;/div&gt;" style="shape=parallelogram;html=1;strokeWidth=2;perimeter=parallelogramPerimeter;whiteSpace=wrap;rounded=1;arcSize=12;size=0.23;" parent="1" vertex="1">
          <mxGeometry x="528" y="655" width="162" height="70" as="geometry" />
        </mxCell>
        <mxCell id="CeYfMiFbEmXjwuUwqjJn-3" value="" style="endArrow=classic;html=1;rounded=0;" parent="1" edge="1">
          <mxGeometry width="50" height="50" relative="1" as="geometry">
            <mxPoint x="610" y="710" as="sourcePoint" />
            <mxPoint x="700" y="710" as="targetPoint" />
          </mxGeometry>
        </mxCell>
        <mxCell id="CeYfMiFbEmXjwuUwqjJn-4" value="Pilihan Tidak&lt;div&gt;Valid&lt;/div&gt;" style="shape=parallelogram;html=1;strokeWidth=2;perimeter=parallelogramPerimeter;whiteSpace=wrap;rounded=1;arcSize=12;size=0.23;" parent="1" vertex="1">
          <mxGeometry x="535" y="835" width="148" height="70" as="geometry" />
        </mxCell>
        <mxCell id="CeYfMiFbEmXjwuUwqjJn-7" value="" style="endArrow=classic;html=1;rounded=0;" parent="1" edge="1">
          <mxGeometry width="50" height="50" relative="1" as="geometry">
            <mxPoint x="600" y="890" as="sourcePoint" />
            <mxPoint x="661" y="890" as="targetPoint" />
          </mxGeometry>
        </mxCell>
        <mxCell id="CeYfMiFbEmXjwuUwqjJn-8" value="" style="endArrow=classic;html=1;rounded=0;exitX=1;exitY=0.5;exitDx=0;exitDy=0;entryX=1;entryY=0.5;entryDx=0;entryDy=0;" parent="1" source="CeYfMiFbEmXjwuUwqjJn-4" target="Ur9wYiCswJF-98dy_9E3-2" edge="1">
          <mxGeometry width="50" height="50" relative="1" as="geometry">
            <mxPoint x="480" y="790" as="sourcePoint" />
            <mxPoint x="530" y="740" as="targetPoint" />
            <Array as="points">
              <mxPoint x="820" y="870" />
              <mxPoint x="820" y="200" />
            </Array>
          </mxGeometry>
        </mxCell>
      </root>
    </mxGraphModel>
  </diagram>
  <diagram name="Menu Login" id="7WKOqaGhWFw1VYqcRq2t">
    <mxGraphModel dx="702" dy="868" grid="1" gridSize="10" guides="1" tooltips="1" connect="1" arrows="1" fold="1" page="1" pageScale="1" pageWidth="850" pageHeight="1100" math="0" shadow="0">
      <root>
        <mxCell id="0" />
        <mxCell id="1" parent="0" />
        <mxCell id="UlV53cZJnEUv3tKWG0Bk-3" value="" style="edgeStyle=orthogonalEdgeStyle;rounded=0;orthogonalLoop=1;jettySize=auto;html=1;exitX=0.5;exitY=1;exitDx=0;exitDy=0;exitPerimeter=0;" parent="1" source="S6zF7RQsblnWGBwrYb9E-1" edge="1">
          <mxGeometry relative="1" as="geometry">
            <mxPoint x="437.6" y="180" as="targetPoint" />
            <mxPoint x="437.5" y="110" as="sourcePoint" />
          </mxGeometry>
        </mxCell>
        <mxCell id="UlV53cZJnEUv3tKWG0Bk-5" value="" style="edgeStyle=orthogonalEdgeStyle;rounded=0;orthogonalLoop=1;jettySize=auto;html=1;" parent="1" target="UlV53cZJnEUv3tKWG0Bk-4" edge="1">
          <mxGeometry relative="1" as="geometry">
            <mxPoint x="437.6" y="240" as="sourcePoint" />
          </mxGeometry>
        </mxCell>
        <mxCell id="UlV53cZJnEUv3tKWG0Bk-10" value="" style="edgeStyle=orthogonalEdgeStyle;rounded=0;orthogonalLoop=1;jettySize=auto;html=1;" parent="1" source="UlV53cZJnEUv3tKWG0Bk-4" target="UlV53cZJnEUv3tKWG0Bk-9" edge="1">
          <mxGeometry relative="1" as="geometry" />
        </mxCell>
        <mxCell id="UlV53cZJnEUv3tKWG0Bk-4" value="Cek Login" style="rhombus;whiteSpace=wrap;html=1;strokeWidth=2;" parent="1" vertex="1">
          <mxGeometry x="360.13" y="290" width="154.75" height="120" as="geometry" />
        </mxCell>
        <mxCell id="UlV53cZJnEUv3tKWG0Bk-12" value="" style="edgeStyle=orthogonalEdgeStyle;rounded=0;orthogonalLoop=1;jettySize=auto;html=1;" parent="1" source="UlV53cZJnEUv3tKWG0Bk-9" target="UlV53cZJnEUv3tKWG0Bk-11" edge="1">
          <mxGeometry relative="1" as="geometry" />
        </mxCell>
        <mxCell id="UlV53cZJnEUv3tKWG0Bk-9" value="Jika Percobaan &amp;gt;3" style="rhombus;whiteSpace=wrap;html=1;strokeWidth=2;" parent="1" vertex="1">
          <mxGeometry x="356.29" y="485" width="162.44" height="150" as="geometry" />
        </mxCell>
        <mxCell id="UlV53cZJnEUv3tKWG0Bk-11" value="Program Terhenti" style="strokeWidth=2;html=1;shape=mxgraph.flowchart.start_1;whiteSpace=wrap;" parent="1" vertex="1">
          <mxGeometry x="372.5" y="700" width="130" height="75" as="geometry" />
        </mxCell>
        <mxCell id="UlV53cZJnEUv3tKWG0Bk-13" value="" style="endArrow=classic;html=1;rounded=0;exitX=0;exitY=0.5;exitDx=0;exitDy=0;entryX=0;entryY=0.5;entryDx=0;entryDy=0;" parent="1" source="UlV53cZJnEUv3tKWG0Bk-9" target="N-iMm1nuZjx_Z3H0cWmQ-2" edge="1">
          <mxGeometry width="50" height="50" relative="1" as="geometry">
            <mxPoint x="530" y="570" as="sourcePoint" />
            <mxPoint x="329.75" y="210" as="targetPoint" />
            <Array as="points">
              <mxPoint x="250" y="560" />
              <mxPoint x="250" y="210" />
            </Array>
          </mxGeometry>
        </mxCell>
        <mxCell id="N-iMm1nuZjx_Z3H0cWmQ-2" value="Input username dan&lt;div&gt;password&lt;/div&gt;" style="shape=parallelogram;perimeter=parallelogramPerimeter;whiteSpace=wrap;html=1;fixedSize=1;" parent="1" vertex="1">
          <mxGeometry x="352.5" y="180" width="170" height="60" as="geometry" />
        </mxCell>
        <mxCell id="N-iMm1nuZjx_Z3H0cWmQ-3" value="" style="endArrow=classic;html=1;rounded=0;entryX=0.157;entryY=0.012;entryDx=0;entryDy=0;entryPerimeter=0;" parent="1" edge="1">
          <mxGeometry width="50" height="50" relative="1" as="geometry">
            <mxPoint x="320" y="190" as="sourcePoint" />
            <mxPoint x="379.19" y="190.72000000000003" as="targetPoint" />
          </mxGeometry>
        </mxCell>
        <mxCell id="-S1pILtp3hF0NvnBZW9s-1" value="Tidak" style="text;html=1;align=center;verticalAlign=middle;resizable=0;points=[];autosize=1;strokeColor=none;fillColor=none;" parent="1" vertex="1">
          <mxGeometry x="390" y="430" width="50" height="30" as="geometry" />
        </mxCell>
        <mxCell id="-S1pILtp3hF0NvnBZW9s-3" value="" style="verticalLabelPosition=bottom;verticalAlign=top;html=1;shape=mxgraph.flowchart.on-page_reference;" parent="1" vertex="1">
          <mxGeometry x="570" y="320" width="60" height="60" as="geometry" />
        </mxCell>
        <mxCell id="pwNjoSDiK12gOd-Zgx23-1" value="A1" style="text;html=1;align=center;verticalAlign=middle;resizable=0;points=[];autosize=1;strokeColor=none;fillColor=none;" parent="1" vertex="1">
          <mxGeometry x="580" y="335" width="40" height="30" as="geometry" />
        </mxCell>
        <mxCell id="pwNjoSDiK12gOd-Zgx23-2" value="" style="endArrow=classic;html=1;rounded=0;exitX=1;exitY=0.5;exitDx=0;exitDy=0;entryX=0;entryY=0.5;entryDx=0;entryDy=0;entryPerimeter=0;" parent="1" source="UlV53cZJnEUv3tKWG0Bk-4" target="-S1pILtp3hF0NvnBZW9s-3" edge="1">
          <mxGeometry width="50" height="50" relative="1" as="geometry">
            <mxPoint x="520" y="460" as="sourcePoint" />
            <mxPoint x="570" y="410" as="targetPoint" />
          </mxGeometry>
        </mxCell>
        <mxCell id="zB5HUOK_X5W2yT6Edbjs-1" value="Ya" style="edgeLabel;html=1;align=center;verticalAlign=middle;resizable=0;points=[];" parent="pwNjoSDiK12gOd-Zgx23-2" vertex="1" connectable="0">
          <mxGeometry x="-0.2337" y="2" relative="1" as="geometry">
            <mxPoint x="4" y="2" as="offset" />
          </mxGeometry>
        </mxCell>
        <mxCell id="pwNjoSDiK12gOd-Zgx23-3" value="Tidak" style="text;html=1;align=center;verticalAlign=middle;resizable=0;points=[];autosize=1;strokeColor=none;fillColor=none;" parent="1" vertex="1">
          <mxGeometry x="390" y="648" width="50" height="30" as="geometry" />
        </mxCell>
        <mxCell id="pwNjoSDiK12gOd-Zgx23-4" value="Ya" style="text;html=1;align=center;verticalAlign=middle;resizable=0;points=[];autosize=1;strokeColor=none;fillColor=none;" parent="1" vertex="1">
          <mxGeometry x="240" y="388" width="40" height="30" as="geometry" />
        </mxCell>
        <mxCell id="S6zF7RQsblnWGBwrYb9E-1" value="" style="verticalLabelPosition=bottom;verticalAlign=top;html=1;shape=mxgraph.flowchart.on-page_reference;" parent="1" vertex="1">
          <mxGeometry x="407.5" y="50" width="60" height="60" as="geometry" />
        </mxCell>
        <mxCell id="S6zF7RQsblnWGBwrYb9E-3" value="B2" style="text;html=1;align=center;verticalAlign=middle;resizable=0;points=[];autosize=1;strokeColor=none;fillColor=none;" parent="1" vertex="1">
          <mxGeometry x="417.5" y="65" width="40" height="30" as="geometry" />
        </mxCell>
      </root>
    </mxGraphModel>
  </diagram>
  <diagram id="pSQ1_ta063Pr589a24Dh" name="Menu Register">
    <mxGraphModel dx="702" dy="868" grid="1" gridSize="10" guides="1" tooltips="1" connect="1" arrows="1" fold="1" page="1" pageScale="1" pageWidth="850" pageHeight="1100" math="0" shadow="0">
      <root>
        <mxCell id="0" />
        <mxCell id="1" parent="0" />
        <mxCell id="79EIMGy8gmivx_581Xum-1" value="" style="edgeStyle=orthogonalEdgeStyle;rounded=0;orthogonalLoop=1;jettySize=auto;html=1;" parent="1" source="FkgJfy-Uw6cejZRUm0J1-1" target="oJDtJBol1iFa9OZnS67d-1" edge="1">
          <mxGeometry relative="1" as="geometry" />
        </mxCell>
        <mxCell id="FkgJfy-Uw6cejZRUm0J1-1" value="" style="verticalLabelPosition=bottom;verticalAlign=top;html=1;shape=mxgraph.flowchart.on-page_reference;" parent="1" vertex="1">
          <mxGeometry x="395" y="50" width="60" height="60" as="geometry" />
        </mxCell>
        <mxCell id="FkgJfy-Uw6cejZRUm0J1-2" value="B3" style="text;html=1;align=center;verticalAlign=middle;resizable=0;points=[];autosize=1;strokeColor=none;fillColor=none;" parent="1" vertex="1">
          <mxGeometry x="405" y="65" width="40" height="30" as="geometry" />
        </mxCell>
        <mxCell id="79EIMGy8gmivx_581Xum-4" value="" style="edgeStyle=orthogonalEdgeStyle;rounded=0;orthogonalLoop=1;jettySize=auto;html=1;" parent="1" source="oJDtJBol1iFa9OZnS67d-1" target="79EIMGy8gmivx_581Xum-3" edge="1">
          <mxGeometry relative="1" as="geometry" />
        </mxCell>
        <mxCell id="oJDtJBol1iFa9OZnS67d-1" value="Input username&lt;div&gt;dan password&lt;/div&gt;" style="shape=parallelogram;html=1;strokeWidth=2;perimeter=parallelogramPerimeter;whiteSpace=wrap;rounded=1;arcSize=12;size=0.23;" parent="1" vertex="1">
          <mxGeometry x="347" y="170" width="155" height="70" as="geometry" />
        </mxCell>
        <mxCell id="79EIMGy8gmivx_581Xum-2" value="" style="endArrow=classic;html=1;rounded=0;" parent="1" edge="1">
          <mxGeometry width="50" height="50" relative="1" as="geometry">
            <mxPoint x="340" y="180" as="sourcePoint" />
            <mxPoint x="405" y="180" as="targetPoint" />
          </mxGeometry>
        </mxCell>
        <mxCell id="79EIMGy8gmivx_581Xum-9" value="" style="edgeStyle=orthogonalEdgeStyle;rounded=0;orthogonalLoop=1;jettySize=auto;html=1;" parent="1" source="79EIMGy8gmivx_581Xum-3" target="79EIMGy8gmivx_581Xum-6" edge="1">
          <mxGeometry relative="1" as="geometry" />
        </mxCell>
        <mxCell id="79EIMGy8gmivx_581Xum-3" value="user berhasil&lt;div&gt;terdaftar&lt;/div&gt;" style="shape=parallelogram;html=1;strokeWidth=2;perimeter=parallelogramPerimeter;whiteSpace=wrap;rounded=1;arcSize=12;size=0.23;" parent="1" vertex="1">
          <mxGeometry x="352" y="300" width="145" height="60" as="geometry" />
        </mxCell>
        <mxCell id="79EIMGy8gmivx_581Xum-5" value="" style="endArrow=classic;html=1;rounded=0;" parent="1" edge="1">
          <mxGeometry width="50" height="50" relative="1" as="geometry">
            <mxPoint x="422" y="350" as="sourcePoint" />
            <mxPoint x="502" y="350" as="targetPoint" />
          </mxGeometry>
        </mxCell>
        <mxCell id="79EIMGy8gmivx_581Xum-6" value="" style="verticalLabelPosition=bottom;verticalAlign=top;html=1;shape=mxgraph.flowchart.on-page_reference;" parent="1" vertex="1">
          <mxGeometry x="394.5" y="430" width="60" height="60" as="geometry" />
        </mxCell>
        <mxCell id="79EIMGy8gmivx_581Xum-10" value="B1" style="text;html=1;align=center;verticalAlign=middle;resizable=0;points=[];autosize=1;strokeColor=none;fillColor=none;" parent="1" vertex="1">
          <mxGeometry x="404.5" y="445" width="40" height="30" as="geometry" />
        </mxCell>
      </root>
    </mxGraphModel>
  </diagram>
  <diagram id="4nSYHP9WaBnPEhPS0Zdf" name="Menu Tampilan">
    <mxGraphModel dx="702" dy="868" grid="1" gridSize="10" guides="1" tooltips="1" connect="1" arrows="1" fold="1" page="1" pageScale="1" pageWidth="850" pageHeight="1100" math="0" shadow="0">
      <root>
        <mxCell id="0" />
        <mxCell id="1" parent="0" />
        <mxCell id="TMoU4l2W7PGVvRccqXnT-2" value="" style="edgeStyle=orthogonalEdgeStyle;rounded=0;orthogonalLoop=1;jettySize=auto;html=1;" parent="1" source="KbEbOctKmioxznNKH62K-1" target="qK7m8QcC9ePtSPS16cjj-1" edge="1">
          <mxGeometry relative="1" as="geometry" />
        </mxCell>
        <mxCell id="KbEbOctKmioxznNKH62K-1" value="" style="verticalLabelPosition=bottom;verticalAlign=top;html=1;shape=mxgraph.flowchart.on-page_reference;" parent="1" vertex="1">
          <mxGeometry x="120" y="60" width="60" height="60" as="geometry" />
        </mxCell>
        <mxCell id="KbEbOctKmioxznNKH62K-2" value="A1" style="text;html=1;align=center;verticalAlign=middle;resizable=0;points=[];autosize=1;strokeColor=none;fillColor=none;" parent="1" vertex="1">
          <mxGeometry x="130" y="75" width="40" height="30" as="geometry" />
        </mxCell>
        <mxCell id="QIf04-iGy1XMk4qdcvUU-3" value="" style="edgeStyle=orthogonalEdgeStyle;rounded=0;orthogonalLoop=1;jettySize=auto;html=1;" parent="1" source="qK7m8QcC9ePtSPS16cjj-1" target="QIf04-iGy1XMk4qdcvUU-1" edge="1">
          <mxGeometry relative="1" as="geometry" />
        </mxCell>
        <mxCell id="qK7m8QcC9ePtSPS16cjj-1" value="Menu Utama:&lt;div&gt;1. Tambah Data Pemain&lt;/div&gt;&lt;div&gt;2. Tampilkan Data Pemain&lt;/div&gt;&lt;div&gt;3. Update Data Pemain&lt;/div&gt;&lt;div&gt;4. Hapus Data Pemain&lt;/div&gt;&lt;div&gt;5. Keluar&lt;/div&gt;" style="shape=parallelogram;html=1;strokeWidth=2;perimeter=parallelogramPerimeter;whiteSpace=wrap;rounded=1;arcSize=12;size=0.23;" parent="1" vertex="1">
          <mxGeometry x="30" y="205" width="240" height="110" as="geometry" />
        </mxCell>
        <mxCell id="TMoU4l2W7PGVvRccqXnT-3" value="" style="endArrow=classic;html=1;rounded=0;" parent="1" edge="1">
          <mxGeometry width="50" height="50" relative="1" as="geometry">
            <mxPoint x="190" y="300" as="sourcePoint" />
            <mxPoint x="310" y="300" as="targetPoint" />
          </mxGeometry>
        </mxCell>
        <mxCell id="QIf04-iGy1XMk4qdcvUU-5" value="" style="edgeStyle=orthogonalEdgeStyle;rounded=0;orthogonalLoop=1;jettySize=auto;html=1;" parent="1" source="QIf04-iGy1XMk4qdcvUU-1" target="QIf04-iGy1XMk4qdcvUU-4" edge="1">
          <mxGeometry relative="1" as="geometry" />
        </mxCell>
        <mxCell id="QIf04-iGy1XMk4qdcvUU-1" value="Input Pilihan" style="shape=parallelogram;html=1;strokeWidth=2;perimeter=parallelogramPerimeter;whiteSpace=wrap;rounded=1;arcSize=12;size=0.23;" parent="1" vertex="1">
          <mxGeometry x="75" y="400" width="150" height="60" as="geometry" />
        </mxCell>
        <mxCell id="QIf04-iGy1XMk4qdcvUU-2" value="" style="endArrow=classic;html=1;rounded=0;" parent="1" edge="1">
          <mxGeometry width="50" height="50" relative="1" as="geometry">
            <mxPoint x="60" y="410" as="sourcePoint" />
            <mxPoint x="120" y="410" as="targetPoint" />
          </mxGeometry>
        </mxCell>
        <mxCell id="vLTvKceB6-cYYFRa85jP-9" value="" style="edgeStyle=orthogonalEdgeStyle;rounded=0;orthogonalLoop=1;jettySize=auto;html=1;" parent="1" source="QIf04-iGy1XMk4qdcvUU-4" target="vLTvKceB6-cYYFRa85jP-8" edge="1">
          <mxGeometry relative="1" as="geometry" />
        </mxCell>
        <mxCell id="QIf04-iGy1XMk4qdcvUU-4" value="pilihan == 1" style="strokeWidth=2;html=1;shape=mxgraph.flowchart.decision;whiteSpace=wrap;" parent="1" vertex="1">
          <mxGeometry x="100" y="530" width="100" height="100" as="geometry" />
        </mxCell>
        <mxCell id="vLTvKceB6-cYYFRa85jP-1" value="" style="verticalLabelPosition=bottom;verticalAlign=top;html=1;shape=mxgraph.flowchart.on-page_reference;" parent="1" vertex="1">
          <mxGeometry x="120" y="680" width="60" height="60" as="geometry" />
        </mxCell>
        <mxCell id="vLTvKceB6-cYYFRa85jP-2" value="A2" style="text;html=1;align=center;verticalAlign=middle;resizable=0;points=[];autosize=1;strokeColor=none;fillColor=none;" parent="1" vertex="1">
          <mxGeometry x="130" y="695" width="40" height="30" as="geometry" />
        </mxCell>
        <mxCell id="vLTvKceB6-cYYFRa85jP-5" value="" style="endArrow=classic;html=1;rounded=0;exitX=0.5;exitY=1;exitDx=0;exitDy=0;exitPerimeter=0;entryX=0.5;entryY=0;entryDx=0;entryDy=0;entryPerimeter=0;" parent="1" source="QIf04-iGy1XMk4qdcvUU-4" target="vLTvKceB6-cYYFRa85jP-1" edge="1">
          <mxGeometry width="50" height="50" relative="1" as="geometry">
            <mxPoint x="310" y="600" as="sourcePoint" />
            <mxPoint x="360" y="550" as="targetPoint" />
          </mxGeometry>
        </mxCell>
        <mxCell id="Nq72s3ADK36o-bjtA1Pp-2" value="" style="edgeStyle=orthogonalEdgeStyle;rounded=0;orthogonalLoop=1;jettySize=auto;html=1;" parent="1" source="vLTvKceB6-cYYFRa85jP-8" target="Nq72s3ADK36o-bjtA1Pp-1" edge="1">
          <mxGeometry relative="1" as="geometry" />
        </mxCell>
        <mxCell id="Nq72s3ADK36o-bjtA1Pp-4" value="" style="edgeStyle=orthogonalEdgeStyle;rounded=0;orthogonalLoop=1;jettySize=auto;html=1;" parent="1" source="vLTvKceB6-cYYFRa85jP-8" target="Nq72s3ADK36o-bjtA1Pp-3" edge="1">
          <mxGeometry relative="1" as="geometry" />
        </mxCell>
        <mxCell id="vLTvKceB6-cYYFRa85jP-8" value="pilihan == 2" style="strokeWidth=2;html=1;shape=mxgraph.flowchart.decision;whiteSpace=wrap;" parent="1" vertex="1">
          <mxGeometry x="250" y="530" width="100" height="100" as="geometry" />
        </mxCell>
        <mxCell id="Nq72s3ADK36o-bjtA1Pp-1" value="Menampilkan Data Pemain" style="shape=parallelogram;html=1;strokeWidth=2;perimeter=parallelogramPerimeter;whiteSpace=wrap;rounded=1;arcSize=12;size=0.23;" parent="1" vertex="1">
          <mxGeometry x="200" y="680" width="200" height="60" as="geometry" />
        </mxCell>
        <mxCell id="R5alAiR9nzmOqpTjFFnm-6" value="" style="edgeStyle=orthogonalEdgeStyle;rounded=0;orthogonalLoop=1;jettySize=auto;html=1;" parent="1" source="Nq72s3ADK36o-bjtA1Pp-3" target="R5alAiR9nzmOqpTjFFnm-5" edge="1">
          <mxGeometry relative="1" as="geometry" />
        </mxCell>
        <mxCell id="Nq72s3ADK36o-bjtA1Pp-3" value="pilihan == 3" style="strokeWidth=2;html=1;shape=mxgraph.flowchart.decision;whiteSpace=wrap;" parent="1" vertex="1">
          <mxGeometry x="410" y="530" width="100" height="100" as="geometry" />
        </mxCell>
        <mxCell id="R5alAiR9nzmOqpTjFFnm-1" value="" style="verticalLabelPosition=bottom;verticalAlign=top;html=1;shape=mxgraph.flowchart.on-page_reference;" parent="1" vertex="1">
          <mxGeometry x="430" y="680" width="60" height="60" as="geometry" />
        </mxCell>
        <mxCell id="R5alAiR9nzmOqpTjFFnm-2" value="A3" style="text;html=1;align=center;verticalAlign=middle;resizable=0;points=[];autosize=1;strokeColor=none;fillColor=none;" parent="1" vertex="1">
          <mxGeometry x="440" y="695" width="40" height="30" as="geometry" />
        </mxCell>
        <mxCell id="R5alAiR9nzmOqpTjFFnm-4" value="" style="endArrow=classic;html=1;rounded=0;exitX=0.5;exitY=1;exitDx=0;exitDy=0;exitPerimeter=0;" parent="1" source="Nq72s3ADK36o-bjtA1Pp-3" target="R5alAiR9nzmOqpTjFFnm-1" edge="1">
          <mxGeometry width="50" height="50" relative="1" as="geometry">
            <mxPoint x="500" y="510" as="sourcePoint" />
            <mxPoint x="550" y="460" as="targetPoint" />
          </mxGeometry>
        </mxCell>
        <mxCell id="OMJ8iq_2NcmcUYRN1dme-2" value="" style="edgeStyle=orthogonalEdgeStyle;rounded=0;orthogonalLoop=1;jettySize=auto;html=1;" parent="1" source="R5alAiR9nzmOqpTjFFnm-5" target="OMJ8iq_2NcmcUYRN1dme-1" edge="1">
          <mxGeometry relative="1" as="geometry" />
        </mxCell>
        <mxCell id="R5alAiR9nzmOqpTjFFnm-5" value="pilihan == 4" style="strokeWidth=2;html=1;shape=mxgraph.flowchart.decision;whiteSpace=wrap;" parent="1" vertex="1">
          <mxGeometry x="560" y="530" width="100" height="100" as="geometry" />
        </mxCell>
        <mxCell id="g_-Xj0dT-pcQm3eBNvCn-1" value="" style="verticalLabelPosition=bottom;verticalAlign=top;html=1;shape=mxgraph.flowchart.on-page_reference;" parent="1" vertex="1">
          <mxGeometry x="580" y="680" width="60" height="60" as="geometry" />
        </mxCell>
        <mxCell id="g_-Xj0dT-pcQm3eBNvCn-2" value="A4" style="text;html=1;align=center;verticalAlign=middle;resizable=0;points=[];autosize=1;strokeColor=none;fillColor=none;" parent="1" vertex="1">
          <mxGeometry x="590" y="695" width="40" height="30" as="geometry" />
        </mxCell>
        <mxCell id="g_-Xj0dT-pcQm3eBNvCn-4" value="" style="endArrow=classic;html=1;rounded=0;exitX=0.5;exitY=1;exitDx=0;exitDy=0;exitPerimeter=0;entryX=0.5;entryY=0;entryDx=0;entryDy=0;entryPerimeter=0;" parent="1" source="R5alAiR9nzmOqpTjFFnm-5" target="g_-Xj0dT-pcQm3eBNvCn-1" edge="1">
          <mxGeometry width="50" height="50" relative="1" as="geometry">
            <mxPoint x="430" y="480" as="sourcePoint" />
            <mxPoint x="480" y="430" as="targetPoint" />
          </mxGeometry>
        </mxCell>
        <mxCell id="g_-Xj0dT-pcQm3eBNvCn-5" value="" style="endArrow=classic;html=1;rounded=0;" parent="1" edge="1">
          <mxGeometry width="50" height="50" relative="1" as="geometry">
            <mxPoint x="340" y="730" as="sourcePoint" />
            <mxPoint x="400" y="730" as="targetPoint" />
          </mxGeometry>
        </mxCell>
        <mxCell id="lgGZTHkoQIjv0jwGrIGt-2" value="" style="edgeStyle=orthogonalEdgeStyle;rounded=0;orthogonalLoop=1;jettySize=auto;html=1;entryX=0.5;entryY=0;entryDx=0;entryDy=0;entryPerimeter=0;" parent="1" source="OMJ8iq_2NcmcUYRN1dme-1" target="4k9RYpFJ6_n0FNY1Kn9D-2" edge="1">
          <mxGeometry relative="1" as="geometry">
            <mxPoint x="759.9999999999998" y="679.9999999999998" as="targetPoint" />
          </mxGeometry>
        </mxCell>
        <mxCell id="Air8bXphO9x2bv2XW5Sy-2" value="" style="edgeStyle=orthogonalEdgeStyle;rounded=0;orthogonalLoop=1;jettySize=auto;html=1;" parent="1" source="OMJ8iq_2NcmcUYRN1dme-1" target="Air8bXphO9x2bv2XW5Sy-1" edge="1">
          <mxGeometry relative="1" as="geometry" />
        </mxCell>
        <mxCell id="OMJ8iq_2NcmcUYRN1dme-1" value="pilihan == 5" style="strokeWidth=2;html=1;shape=mxgraph.flowchart.decision;whiteSpace=wrap;" parent="1" vertex="1">
          <mxGeometry x="710" y="530" width="100" height="100" as="geometry" />
        </mxCell>
        <mxCell id="OMJ8iq_2NcmcUYRN1dme-4" value="Tidak" style="text;html=1;align=center;verticalAlign=middle;resizable=0;points=[];autosize=1;strokeColor=none;fillColor=none;" parent="1" vertex="1">
          <mxGeometry x="190" y="550" width="50" height="30" as="geometry" />
        </mxCell>
        <mxCell id="OMJ8iq_2NcmcUYRN1dme-5" value="Tidak" style="text;html=1;align=center;verticalAlign=middle;resizable=0;points=[];autosize=1;strokeColor=none;fillColor=none;" parent="1" vertex="1">
          <mxGeometry x="350" y="550" width="50" height="30" as="geometry" />
        </mxCell>
        <mxCell id="OMJ8iq_2NcmcUYRN1dme-6" value="Tidak" style="text;html=1;align=center;verticalAlign=middle;resizable=0;points=[];autosize=1;strokeColor=none;fillColor=none;" parent="1" vertex="1">
          <mxGeometry x="500" y="550" width="50" height="30" as="geometry" />
        </mxCell>
        <mxCell id="OMJ8iq_2NcmcUYRN1dme-7" value="Tidak" style="text;html=1;align=center;verticalAlign=middle;resizable=0;points=[];autosize=1;strokeColor=none;fillColor=none;" parent="1" vertex="1">
          <mxGeometry x="650" y="550" width="50" height="30" as="geometry" />
        </mxCell>
        <mxCell id="OMJ8iq_2NcmcUYRN1dme-8" value="Ya" style="text;html=1;align=center;verticalAlign=middle;resizable=0;points=[];autosize=1;strokeColor=none;fillColor=none;" parent="1" vertex="1">
          <mxGeometry x="140" y="640" width="40" height="30" as="geometry" />
        </mxCell>
        <mxCell id="OMJ8iq_2NcmcUYRN1dme-9" value="Ya" style="text;html=1;align=center;verticalAlign=middle;resizable=0;points=[];autosize=1;strokeColor=none;fillColor=none;" parent="1" vertex="1">
          <mxGeometry x="290" y="640" width="40" height="30" as="geometry" />
        </mxCell>
        <mxCell id="OMJ8iq_2NcmcUYRN1dme-10" value="Ya" style="text;html=1;align=center;verticalAlign=middle;resizable=0;points=[];autosize=1;strokeColor=none;fillColor=none;" parent="1" vertex="1">
          <mxGeometry x="450" y="640" width="40" height="30" as="geometry" />
        </mxCell>
        <mxCell id="OMJ8iq_2NcmcUYRN1dme-11" value="Ya" style="text;html=1;align=center;verticalAlign=middle;resizable=0;points=[];autosize=1;strokeColor=none;fillColor=none;" parent="1" vertex="1">
          <mxGeometry x="600" y="640" width="40" height="30" as="geometry" />
        </mxCell>
        <mxCell id="lgGZTHkoQIjv0jwGrIGt-3" value="Ya" style="text;html=1;align=center;verticalAlign=middle;resizable=0;points=[];autosize=1;strokeColor=none;fillColor=none;" parent="1" vertex="1">
          <mxGeometry x="750" y="640" width="40" height="30" as="geometry" />
        </mxCell>
        <mxCell id="Air8bXphO9x2bv2XW5Sy-1" value="Pilihan tidak Valid" style="shape=parallelogram;html=1;strokeWidth=2;perimeter=parallelogramPerimeter;whiteSpace=wrap;rounded=1;arcSize=12;size=0.23;" parent="1" vertex="1">
          <mxGeometry x="690" y="390" width="140" height="60" as="geometry" />
        </mxCell>
        <mxCell id="Air8bXphO9x2bv2XW5Sy-3" value="" style="endArrow=classic;html=1;rounded=0;exitX=0.5;exitY=0;exitDx=0;exitDy=0;" parent="1" source="Air8bXphO9x2bv2XW5Sy-1" edge="1">
          <mxGeometry width="50" height="50" relative="1" as="geometry">
            <mxPoint x="620" y="440" as="sourcePoint" />
            <mxPoint x="240" y="267" as="targetPoint" />
            <Array as="points">
              <mxPoint x="760" y="267" />
            </Array>
          </mxGeometry>
        </mxCell>
        <mxCell id="Air8bXphO9x2bv2XW5Sy-4" value="Tidak" style="text;html=1;align=center;verticalAlign=middle;resizable=0;points=[];autosize=1;strokeColor=none;fillColor=none;" parent="1" vertex="1">
          <mxGeometry x="710" y="480" width="50" height="30" as="geometry" />
        </mxCell>
        <mxCell id="Air8bXphO9x2bv2XW5Sy-5" value="" style="endArrow=classic;html=1;rounded=0;exitX=0.5;exitY=1;exitDx=0;exitDy=0;exitPerimeter=0;entryX=0;entryY=0.5;entryDx=0;entryDy=0;" parent="1" source="g_-Xj0dT-pcQm3eBNvCn-1" target="qK7m8QcC9ePtSPS16cjj-1" edge="1">
          <mxGeometry width="50" height="50" relative="1" as="geometry">
            <mxPoint x="520" y="600" as="sourcePoint" />
            <mxPoint x="570" y="550" as="targetPoint" />
            <Array as="points">
              <mxPoint x="610" y="780" />
              <mxPoint x="10" y="780" />
              <mxPoint x="10" y="260" />
            </Array>
          </mxGeometry>
        </mxCell>
        <mxCell id="Air8bXphO9x2bv2XW5Sy-6" value="" style="endArrow=classic;html=1;rounded=0;exitX=0.5;exitY=1;exitDx=0;exitDy=0;exitPerimeter=0;" parent="1" source="vLTvKceB6-cYYFRa85jP-1" edge="1">
          <mxGeometry width="50" height="50" relative="1" as="geometry">
            <mxPoint x="540" y="640" as="sourcePoint" />
            <mxPoint x="150" y="780" as="targetPoint" />
          </mxGeometry>
        </mxCell>
        <mxCell id="Air8bXphO9x2bv2XW5Sy-7" value="" style="endArrow=classic;html=1;rounded=0;exitX=0.5;exitY=1;exitDx=0;exitDy=0;" parent="1" source="Nq72s3ADK36o-bjtA1Pp-1" edge="1">
          <mxGeometry width="50" height="50" relative="1" as="geometry">
            <mxPoint x="299.57" y="740" as="sourcePoint" />
            <mxPoint x="299.57" y="780" as="targetPoint" />
          </mxGeometry>
        </mxCell>
        <mxCell id="Air8bXphO9x2bv2XW5Sy-8" value="" style="endArrow=classic;html=1;rounded=0;exitX=0.5;exitY=1;exitDx=0;exitDy=0;exitPerimeter=0;" parent="1" source="R5alAiR9nzmOqpTjFFnm-1" edge="1">
          <mxGeometry width="50" height="50" relative="1" as="geometry">
            <mxPoint x="540" y="640" as="sourcePoint" />
            <mxPoint x="460" y="780" as="targetPoint" />
          </mxGeometry>
        </mxCell>
        <mxCell id="4k9RYpFJ6_n0FNY1Kn9D-2" value="" style="verticalLabelPosition=bottom;verticalAlign=top;html=1;shape=mxgraph.flowchart.on-page_reference;" parent="1" vertex="1">
          <mxGeometry x="730" y="690" width="60" height="60" as="geometry" />
        </mxCell>
        <mxCell id="4k9RYpFJ6_n0FNY1Kn9D-3" value="B1" style="text;html=1;align=center;verticalAlign=middle;resizable=0;points=[];autosize=1;strokeColor=none;fillColor=none;" parent="1" vertex="1">
          <mxGeometry x="740" y="705" width="40" height="30" as="geometry" />
        </mxCell>
      </root>
    </mxGraphModel>
  </diagram>
  <diagram id="S8YG6woOuSCOJO8U0TFg" name="Pilihan 1">
    <mxGraphModel dx="1552" dy="868" grid="1" gridSize="10" guides="1" tooltips="1" connect="1" arrows="1" fold="1" page="1" pageScale="1" pageWidth="850" pageHeight="1100" math="0" shadow="0">
      <root>
        <mxCell id="0" />
        <mxCell id="1" parent="0" />
        <mxCell id="X5q7GoUHwYiAntx6Oxpd-5" value="" style="edgeStyle=orthogonalEdgeStyle;rounded=0;orthogonalLoop=1;jettySize=auto;html=1;exitX=0.5;exitY=1;exitDx=0;exitDy=0;entryX=0.5;entryY=0;entryDx=0;entryDy=0;entryPerimeter=0;" parent="1" source="ipkxXOjN9o1SzK_wIqrM-5" target="YoTlNZpNUg4diBEXLc-9-1" edge="1">
          <mxGeometry relative="1" as="geometry">
            <mxPoint x="-424.9999999999999" y="559" as="sourcePoint" />
            <mxPoint x="-425" y="630" as="targetPoint" />
          </mxGeometry>
        </mxCell>
        <mxCell id="X5q7GoUHwYiAntx6Oxpd-2" value="" style="edgeStyle=orthogonalEdgeStyle;rounded=0;orthogonalLoop=1;jettySize=auto;html=1;entryX=0.5;entryY=0;entryDx=0;entryDy=0;" parent="1" source="X5q7GoUHwYiAntx6Oxpd-1" target="ipkxXOjN9o1SzK_wIqrM-2" edge="1">
          <mxGeometry relative="1" as="geometry">
            <mxPoint x="-425" y="200" as="targetPoint" />
          </mxGeometry>
        </mxCell>
        <mxCell id="X5q7GoUHwYiAntx6Oxpd-1" value="" style="verticalLabelPosition=bottom;verticalAlign=top;html=1;shape=mxgraph.flowchart.on-page_reference;" parent="1" vertex="1">
          <mxGeometry x="-465" y="60" width="80" height="80" as="geometry" />
        </mxCell>
        <mxCell id="X5q7GoUHwYiAntx6Oxpd-3" value="A2" style="text;html=1;align=center;verticalAlign=middle;resizable=0;points=[];autosize=1;strokeColor=none;fillColor=none;" parent="1" vertex="1">
          <mxGeometry x="-445" y="85" width="40" height="30" as="geometry" />
        </mxCell>
        <mxCell id="aRZc-k9ADXyt71VglLh--3" value="" style="edgeStyle=orthogonalEdgeStyle;rounded=0;orthogonalLoop=1;jettySize=auto;html=1;" parent="1" source="ipkxXOjN9o1SzK_wIqrM-2" target="aRZc-k9ADXyt71VglLh--1" edge="1">
          <mxGeometry relative="1" as="geometry" />
        </mxCell>
        <mxCell id="ipkxXOjN9o1SzK_wIqrM-2" value="Input Nama, Posisi, dan Tim Pemain" style="shape=parallelogram;html=1;strokeWidth=2;perimeter=parallelogramPerimeter;whiteSpace=wrap;rounded=1;arcSize=12;size=0.23;" parent="1" vertex="1">
          <mxGeometry x="-575" y="200" width="300" height="60" as="geometry" />
        </mxCell>
        <mxCell id="ipkxXOjN9o1SzK_wIqrM-4" value="" style="endArrow=classic;html=1;rounded=0;entryX=0.224;entryY=-0.005;entryDx=0;entryDy=0;entryPerimeter=0;" parent="1" edge="1">
          <mxGeometry width="50" height="50" relative="1" as="geometry">
            <mxPoint x="-582.2" y="210.3" as="sourcePoint" />
            <mxPoint x="-499.99999999999994" y="210.00000000000006" as="targetPoint" />
          </mxGeometry>
        </mxCell>
        <mxCell id="ipkxXOjN9o1SzK_wIqrM-5" value="Data Ditambahkam" style="shape=parallelogram;html=1;strokeWidth=2;perimeter=parallelogramPerimeter;whiteSpace=wrap;rounded=1;arcSize=12;size=0.23;" parent="1" vertex="1">
          <mxGeometry x="-500" y="510" width="150" height="60" as="geometry" />
        </mxCell>
        <mxCell id="ipkxXOjN9o1SzK_wIqrM-6" value="" style="endArrow=classic;html=1;rounded=0;exitX=0.75;exitY=1;exitDx=0;exitDy=0;" parent="1" edge="1">
          <mxGeometry width="50" height="50" relative="1" as="geometry">
            <mxPoint x="-400" y="560" as="sourcePoint" />
            <mxPoint x="-330" y="560" as="targetPoint" />
            <Array as="points">
              <mxPoint x="-372.5" y="560" />
            </Array>
          </mxGeometry>
        </mxCell>
        <mxCell id="YoTlNZpNUg4diBEXLc-9-1" value="" style="verticalLabelPosition=bottom;verticalAlign=top;html=1;shape=mxgraph.flowchart.on-page_reference;" parent="1" vertex="1">
          <mxGeometry x="-465" y="630" width="80" height="80" as="geometry" />
        </mxCell>
        <mxCell id="YoTlNZpNUg4diBEXLc-9-2" value="A1" style="text;html=1;align=center;verticalAlign=middle;resizable=0;points=[];autosize=1;strokeColor=none;fillColor=none;" parent="1" vertex="1">
          <mxGeometry x="-445" y="655" width="40" height="30" as="geometry" />
        </mxCell>
        <mxCell id="aRZc-k9ADXyt71VglLh--4" value="" style="edgeStyle=orthogonalEdgeStyle;rounded=0;orthogonalLoop=1;jettySize=auto;html=1;" parent="1" source="aRZc-k9ADXyt71VglLh--1" target="ipkxXOjN9o1SzK_wIqrM-5" edge="1">
          <mxGeometry relative="1" as="geometry" />
        </mxCell>
        <mxCell id="aRZc-k9ADXyt71VglLh--1" value="Input statistik (poin, assist, rebound)" style="shape=parallelogram;html=1;strokeWidth=2;perimeter=parallelogramPerimeter;whiteSpace=wrap;rounded=1;arcSize=12;size=0.23;" parent="1" vertex="1">
          <mxGeometry x="-575" y="360" width="300" height="60" as="geometry" />
        </mxCell>
        <mxCell id="aRZc-k9ADXyt71VglLh--2" value="" style="endArrow=classic;html=1;rounded=0;entryX=0.224;entryY=-0.005;entryDx=0;entryDy=0;entryPerimeter=0;" parent="1" edge="1">
          <mxGeometry width="50" height="50" relative="1" as="geometry">
            <mxPoint x="-579" y="370.3" as="sourcePoint" />
            <mxPoint x="-496.79999999999995" y="370.00000000000006" as="targetPoint" />
          </mxGeometry>
        </mxCell>
      </root>
    </mxGraphModel>
  </diagram>
  <diagram id="tHy-tS7hYfwvR0ZDK9sI" name="Pilihan 3">
    <mxGraphModel dx="712" dy="875" grid="1" gridSize="10" guides="1" tooltips="1" connect="1" arrows="1" fold="1" page="1" pageScale="1" pageWidth="850" pageHeight="1100" math="0" shadow="0">
      <root>
        <mxCell id="0" />
        <mxCell id="1" parent="0" />
        <mxCell id="xHknV534GzlJEbBNtqOk-3" value="" style="edgeStyle=orthogonalEdgeStyle;rounded=0;orthogonalLoop=1;jettySize=auto;html=1;" parent="1" source="YxfTZMYXY9lmFeaachtN-21" target="xHknV534GzlJEbBNtqOk-2" edge="1">
          <mxGeometry relative="1" as="geometry" />
        </mxCell>
        <mxCell id="YxfTZMYXY9lmFeaachtN-21" value="" style="verticalLabelPosition=bottom;verticalAlign=top;html=1;shape=mxgraph.flowchart.on-page_reference;" parent="1" vertex="1">
          <mxGeometry x="439" y="30" width="60" height="60" as="geometry" />
        </mxCell>
        <mxCell id="xHknV534GzlJEbBNtqOk-1" value="A3" style="text;html=1;align=center;verticalAlign=middle;resizable=0;points=[];autosize=1;strokeColor=none;fillColor=none;" parent="1" vertex="1">
          <mxGeometry x="449" y="45" width="40" height="30" as="geometry" />
        </mxCell>
        <mxCell id="xHknV534GzlJEbBNtqOk-17" value="" style="edgeStyle=orthogonalEdgeStyle;rounded=0;orthogonalLoop=1;jettySize=auto;html=1;entryX=0.5;entryY=0;entryDx=0;entryDy=0;" parent="1" source="xHknV534GzlJEbBNtqOk-2" target="SbWFtgOtw5bAbVkntRHo-1" edge="1">
          <mxGeometry relative="1" as="geometry">
            <mxPoint x="469" y="340" as="targetPoint" />
          </mxGeometry>
        </mxCell>
        <mxCell id="bKPZe5PLoi58cY_eFrR1-1" value="Ya" style="edgeLabel;html=1;align=center;verticalAlign=middle;resizable=0;points=[];" parent="xHknV534GzlJEbBNtqOk-17" vertex="1" connectable="0">
          <mxGeometry x="-0.1348" y="-3" relative="1" as="geometry">
            <mxPoint as="offset" />
          </mxGeometry>
        </mxCell>
        <mxCell id="xHknV534GzlJEbBNtqOk-2" value="" style="rhombus;whiteSpace=wrap;html=1;verticalAlign=top;" parent="1" vertex="1">
          <mxGeometry x="395" y="140" width="148" height="140" as="geometry" />
        </mxCell>
        <mxCell id="xHknV534GzlJEbBNtqOk-4" value="Ada Data Pemain ?" style="text;html=1;align=center;verticalAlign=middle;resizable=0;points=[];autosize=1;strokeColor=none;fillColor=none;" parent="1" vertex="1">
          <mxGeometry x="404" y="195" width="130" height="30" as="geometry" />
        </mxCell>
        <mxCell id="xHknV534GzlJEbBNtqOk-10" value="" style="endArrow=classic;html=1;rounded=0;exitX=1;exitY=0.5;exitDx=0;exitDy=0;entryX=0;entryY=0.5;entryDx=0;entryDy=0;" parent="1" source="xHknV534GzlJEbBNtqOk-2" target="SbWFtgOtw5bAbVkntRHo-7" edge="1">
          <mxGeometry width="50" height="50" relative="1" as="geometry">
            <mxPoint x="634" y="350" as="sourcePoint" />
            <mxPoint x="624" y="210" as="targetPoint" />
          </mxGeometry>
        </mxCell>
        <mxCell id="xHknV534GzlJEbBNtqOk-11" value="Tidak" style="edgeLabel;html=1;align=center;verticalAlign=middle;resizable=0;points=[];" parent="xHknV534GzlJEbBNtqOk-10" vertex="1" connectable="0">
          <mxGeometry x="-0.2099" relative="1" as="geometry">
            <mxPoint as="offset" />
          </mxGeometry>
        </mxCell>
        <mxCell id="xHknV534GzlJEbBNtqOk-22" value="" style="endArrow=classic;html=1;rounded=0;exitX=0.5;exitY=1;exitDx=0;exitDy=0;entryX=0.5;entryY=0;entryDx=0;entryDy=0;entryPerimeter=0;" parent="1" source="SbWFtgOtw5bAbVkntRHo-7" target="9m5fKLU8SRR196QW-0x9-2" edge="1">
          <mxGeometry width="50" height="50" relative="1" as="geometry">
            <mxPoint x="729" y="235" as="sourcePoint" />
            <mxPoint x="729" y="490" as="targetPoint" />
          </mxGeometry>
        </mxCell>
        <mxCell id="vtsHtA5ePSK_-QsaTLrc-3" value="" style="edgeStyle=orthogonalEdgeStyle;rounded=0;orthogonalLoop=1;jettySize=auto;html=1;" parent="1" source="mxRAOyjgGuwsKp0BLnnq-2" target="vtsHtA5ePSK_-QsaTLrc-1" edge="1">
          <mxGeometry relative="1" as="geometry" />
        </mxCell>
        <mxCell id="vtsHtA5ePSK_-QsaTLrc-5" value="Tidak" style="edgeLabel;html=1;align=center;verticalAlign=middle;resizable=0;points=[];" parent="vtsHtA5ePSK_-QsaTLrc-3" vertex="1" connectable="0">
          <mxGeometry x="-0.4684" y="3" relative="1" as="geometry">
            <mxPoint x="-12" y="-3" as="offset" />
          </mxGeometry>
        </mxCell>
        <mxCell id="mxRAOyjgGuwsKp0BLnnq-2" value="Apakah data ada ?" style="rhombus;whiteSpace=wrap;html=1;" parent="1" vertex="1">
          <mxGeometry x="404.38" y="460" width="129.25" height="130" as="geometry" />
        </mxCell>
        <mxCell id="mxRAOyjgGuwsKp0BLnnq-7" value="" style="endArrow=classic;html=1;rounded=0;exitX=0.501;exitY=0.967;exitDx=0;exitDy=0;entryX=0.5;entryY=0;entryDx=0;entryDy=0;exitPerimeter=0;" parent="1" source="SbWFtgOtw5bAbVkntRHo-1" target="mxRAOyjgGuwsKp0BLnnq-2" edge="1">
          <mxGeometry width="50" height="50" relative="1" as="geometry">
            <mxPoint x="469" y="390" as="sourcePoint" />
            <mxPoint x="680" y="490" as="targetPoint" />
          </mxGeometry>
        </mxCell>
        <mxCell id="mxRAOyjgGuwsKp0BLnnq-8" value="" style="endArrow=classic;html=1;rounded=0;exitX=0.5;exitY=1;exitDx=0;exitDy=0;entryX=0.5;entryY=0;entryDx=0;entryDy=0;" parent="1" source="mxRAOyjgGuwsKp0BLnnq-2" target="SbWFtgOtw5bAbVkntRHo-3" edge="1">
          <mxGeometry width="50" height="50" relative="1" as="geometry">
            <mxPoint x="630" y="540" as="sourcePoint" />
            <mxPoint x="469.005" y="650" as="targetPoint" />
          </mxGeometry>
        </mxCell>
        <mxCell id="vtsHtA5ePSK_-QsaTLrc-6" value="Ya" style="edgeLabel;html=1;align=center;verticalAlign=middle;resizable=0;points=[];" parent="mxRAOyjgGuwsKp0BLnnq-8" vertex="1" connectable="0">
          <mxGeometry x="-0.1333" y="1" relative="1" as="geometry">
            <mxPoint as="offset" />
          </mxGeometry>
        </mxCell>
        <mxCell id="mxRAOyjgGuwsKp0BLnnq-9" value="" style="endArrow=classic;html=1;rounded=0;entryX=0.5;entryY=1;entryDx=0;entryDy=0;exitX=0.5;exitY=0;exitDx=0;exitDy=0;entryPerimeter=0;" parent="1" source="SbWFtgOtw5bAbVkntRHo-5" target="9m5fKLU8SRR196QW-0x9-2" edge="1">
          <mxGeometry width="50" height="50" relative="1" as="geometry">
            <mxPoint x="729" y="660" as="sourcePoint" />
            <mxPoint x="729" y="570" as="targetPoint" />
          </mxGeometry>
        </mxCell>
        <mxCell id="mxRAOyjgGuwsKp0BLnnq-10" value="" style="endArrow=classic;html=1;rounded=0;exitX=1;exitY=0.5;exitDx=0;exitDy=0;entryX=0;entryY=0.5;entryDx=0;entryDy=0;" parent="1" source="SbWFtgOtw5bAbVkntRHo-3" target="SbWFtgOtw5bAbVkntRHo-5" edge="1">
          <mxGeometry width="50" height="50" relative="1" as="geometry">
            <mxPoint x="566.88" y="680" as="sourcePoint" />
            <mxPoint x="650.5000000000001" y="690" as="targetPoint" />
          </mxGeometry>
        </mxCell>
        <mxCell id="mxRAOyjgGuwsKp0BLnnq-11" value="" style="verticalLabelPosition=bottom;verticalAlign=top;html=1;shape=mxgraph.flowchart.on-page_reference;" parent="1" vertex="1">
          <mxGeometry x="60" y="495" width="60" height="60" as="geometry" />
        </mxCell>
        <mxCell id="mxRAOyjgGuwsKp0BLnnq-13" value="A3" style="text;html=1;align=center;verticalAlign=middle;resizable=0;points=[];autosize=1;strokeColor=none;fillColor=none;" parent="1" vertex="1">
          <mxGeometry x="70" y="510" width="40" height="30" as="geometry" />
        </mxCell>
        <mxCell id="SbWFtgOtw5bAbVkntRHo-1" value="&lt;span style=&quot;text-wrap: nowrap;&quot;&gt;Input Pilihan Data mana yang&lt;/span&gt;&lt;div style=&quot;text-wrap: nowrap;&quot;&gt;mau di Update&lt;/div&gt;" style="shape=parallelogram;html=1;strokeWidth=2;perimeter=parallelogramPerimeter;whiteSpace=wrap;rounded=1;arcSize=12;size=0.23;" parent="1" vertex="1">
          <mxGeometry x="344" y="340" width="250" height="60" as="geometry" />
        </mxCell>
        <mxCell id="SbWFtgOtw5bAbVkntRHo-2" value="" style="endArrow=classic;html=1;rounded=0;entryX=0.221;entryY=0.001;entryDx=0;entryDy=0;entryPerimeter=0;" parent="1" edge="1">
          <mxGeometry width="50" height="50" relative="1" as="geometry">
            <mxPoint x="360" y="350" as="sourcePoint" />
            <mxPoint x="414" y="350.06000000000006" as="targetPoint" />
          </mxGeometry>
        </mxCell>
        <mxCell id="SbWFtgOtw5bAbVkntRHo-3" value="&lt;span style=&quot;text-wrap: nowrap;&quot;&gt;Input Pilihan yang&lt;/span&gt;&lt;div style=&quot;text-wrap: nowrap;&quot;&gt;mana mau di Update&lt;/div&gt;" style="shape=parallelogram;html=1;strokeWidth=2;perimeter=parallelogramPerimeter;whiteSpace=wrap;rounded=1;arcSize=12;size=0.23;" parent="1" vertex="1">
          <mxGeometry x="367" y="660" width="204" height="60" as="geometry" />
        </mxCell>
        <mxCell id="SbWFtgOtw5bAbVkntRHo-4" value="" style="endArrow=classic;html=1;rounded=0;entryX=0.25;entryY=0;entryDx=0;entryDy=0;" parent="1" edge="1">
          <mxGeometry width="50" height="50" relative="1" as="geometry">
            <mxPoint x="350" y="670" as="sourcePoint" />
            <mxPoint x="428" y="670" as="targetPoint" />
          </mxGeometry>
        </mxCell>
        <mxCell id="SbWFtgOtw5bAbVkntRHo-5" value="Data Berhasil di Update" style="shape=parallelogram;html=1;strokeWidth=2;perimeter=parallelogramPerimeter;whiteSpace=wrap;rounded=1;arcSize=12;size=0.23;" parent="1" vertex="1">
          <mxGeometry x="636" y="660" width="186" height="60" as="geometry" />
        </mxCell>
        <mxCell id="SbWFtgOtw5bAbVkntRHo-6" value="" style="endArrow=classic;html=1;rounded=0;exitX=0.776;exitY=0.957;exitDx=0;exitDy=0;exitPerimeter=0;" parent="1" edge="1">
          <mxGeometry width="50" height="50" relative="1" as="geometry">
            <mxPoint x="769.336" y="710.42" as="sourcePoint" />
            <mxPoint x="829" y="710" as="targetPoint" />
            <Array as="points">
              <mxPoint x="799" y="710" />
            </Array>
          </mxGeometry>
        </mxCell>
        <mxCell id="SbWFtgOtw5bAbVkntRHo-7" value="Belum ada Data Pemain" style="shape=parallelogram;html=1;strokeWidth=2;perimeter=parallelogramPerimeter;whiteSpace=wrap;rounded=1;arcSize=12;size=0.23;" parent="1" vertex="1">
          <mxGeometry x="629" y="180" width="200" height="60" as="geometry" />
        </mxCell>
        <mxCell id="SbWFtgOtw5bAbVkntRHo-8" value="" style="endArrow=classic;html=1;rounded=0;exitX=0.75;exitY=1;exitDx=0;exitDy=0;" parent="1" edge="1">
          <mxGeometry width="50" height="50" relative="1" as="geometry">
            <mxPoint x="774" y="230" as="sourcePoint" />
            <mxPoint x="835" y="230" as="targetPoint" />
          </mxGeometry>
        </mxCell>
        <mxCell id="9m5fKLU8SRR196QW-0x9-2" value="" style="verticalLabelPosition=bottom;verticalAlign=top;html=1;shape=mxgraph.flowchart.on-page_reference;" parent="1" vertex="1">
          <mxGeometry x="699" y="495" width="60" height="60" as="geometry" />
        </mxCell>
        <mxCell id="9m5fKLU8SRR196QW-0x9-3" value="A1" style="text;html=1;align=center;verticalAlign=middle;resizable=0;points=[];autosize=1;strokeColor=none;fillColor=none;" parent="1" vertex="1">
          <mxGeometry x="709" y="510" width="40" height="30" as="geometry" />
        </mxCell>
        <mxCell id="vtsHtA5ePSK_-QsaTLrc-1" value="Pilihan Tidak Valid" style="shape=parallelogram;html=1;strokeWidth=2;perimeter=parallelogramPerimeter;whiteSpace=wrap;rounded=1;arcSize=12;size=0.23;" parent="1" vertex="1">
          <mxGeometry x="154" y="495" width="190" height="60" as="geometry" />
        </mxCell>
        <mxCell id="vtsHtA5ePSK_-QsaTLrc-2" value="" style="endArrow=classic;html=1;rounded=0;" parent="1" edge="1">
          <mxGeometry width="50" height="50" relative="1" as="geometry">
            <mxPoint x="274" y="549" as="sourcePoint" />
            <mxPoint x="334" y="549" as="targetPoint" />
          </mxGeometry>
        </mxCell>
        <mxCell id="vtsHtA5ePSK_-QsaTLrc-4" value="" style="endArrow=classic;html=1;rounded=0;exitX=0;exitY=0.5;exitDx=0;exitDy=0;entryX=1;entryY=0.5;entryDx=0;entryDy=0;entryPerimeter=0;" parent="1" source="vtsHtA5ePSK_-QsaTLrc-1" target="mxRAOyjgGuwsKp0BLnnq-11" edge="1">
          <mxGeometry width="50" height="50" relative="1" as="geometry">
            <mxPoint x="304" y="530" as="sourcePoint" />
            <mxPoint x="354" y="480" as="targetPoint" />
          </mxGeometry>
        </mxCell>
      </root>
    </mxGraphModel>
  </diagram>
  <diagram id="_Ap1EqGLo1OsT1_gM6m1" name="Pilihan 4">
    <mxGraphModel dx="712" dy="875" grid="1" gridSize="10" guides="1" tooltips="1" connect="1" arrows="1" fold="1" page="1" pageScale="1" pageWidth="850" pageHeight="1100" math="0" shadow="0">
      <root>
        <mxCell id="0" />
        <mxCell id="1" parent="0" />
        <mxCell id="fm2r5vDGzfXoW79CL8nf-2" value="" style="edgeStyle=orthogonalEdgeStyle;rounded=0;orthogonalLoop=1;jettySize=auto;html=1;" parent="1" source="47tF698kEKXgAh7XTrXt-1" target="fm2r5vDGzfXoW79CL8nf-1" edge="1">
          <mxGeometry relative="1" as="geometry" />
        </mxCell>
        <mxCell id="47tF698kEKXgAh7XTrXt-1" value="" style="verticalLabelPosition=bottom;verticalAlign=top;html=1;shape=mxgraph.flowchart.on-page_reference;" parent="1" vertex="1">
          <mxGeometry x="156" y="60" width="60" height="60" as="geometry" />
        </mxCell>
        <mxCell id="47tF698kEKXgAh7XTrXt-2" value="A4" style="text;html=1;align=center;verticalAlign=middle;resizable=0;points=[];autosize=1;strokeColor=none;fillColor=none;" parent="1" vertex="1">
          <mxGeometry x="166" y="75" width="40" height="30" as="geometry" />
        </mxCell>
        <mxCell id="fm2r5vDGzfXoW79CL8nf-8" value="" style="edgeStyle=orthogonalEdgeStyle;rounded=0;orthogonalLoop=1;jettySize=auto;html=1;entryX=0;entryY=0.5;entryDx=0;entryDy=0;" parent="1" source="fm2r5vDGzfXoW79CL8nf-1" target="wK2fXQm7fNXGbqNDt2HA-1" edge="1">
          <mxGeometry relative="1" as="geometry">
            <mxPoint x="321" y="225" as="targetPoint" />
          </mxGeometry>
        </mxCell>
        <mxCell id="fm2r5vDGzfXoW79CL8nf-10" value="Tidak" style="edgeLabel;html=1;align=center;verticalAlign=middle;resizable=0;points=[];" parent="fm2r5vDGzfXoW79CL8nf-8" vertex="1" connectable="0">
          <mxGeometry x="-0.1831" y="-1" relative="1" as="geometry">
            <mxPoint x="-3" y="-1" as="offset" />
          </mxGeometry>
        </mxCell>
        <mxCell id="fm2r5vDGzfXoW79CL8nf-1" value="" style="rhombus;whiteSpace=wrap;html=1;verticalAlign=top;" parent="1" vertex="1">
          <mxGeometry x="122" y="170" width="128" height="110" as="geometry" />
        </mxCell>
        <mxCell id="fm2r5vDGzfXoW79CL8nf-3" value="Ada Data Pemain?" style="text;html=1;align=center;verticalAlign=middle;resizable=0;points=[];autosize=1;strokeColor=none;fillColor=none;" parent="1" vertex="1">
          <mxGeometry x="126" y="210" width="120" height="30" as="geometry" />
        </mxCell>
        <mxCell id="fm2r5vDGzfXoW79CL8nf-13" value="" style="endArrow=classic;html=1;rounded=0;exitX=0.5;exitY=1;exitDx=0;exitDy=0;entryX=0.5;entryY=0;entryDx=0;entryDy=0;" parent="1" source="fm2r5vDGzfXoW79CL8nf-1" target="wK2fXQm7fNXGbqNDt2HA-3" edge="1">
          <mxGeometry width="50" height="50" relative="1" as="geometry">
            <mxPoint x="201" y="360" as="sourcePoint" />
            <mxPoint x="186.5" y="340.0000000000001" as="targetPoint" />
          </mxGeometry>
        </mxCell>
        <mxCell id="KVjY1l4jC642Nahu12zt-13" value="" style="edgeStyle=orthogonalEdgeStyle;rounded=0;orthogonalLoop=1;jettySize=auto;html=1;entryX=0;entryY=0.5;entryDx=0;entryDy=0;" parent="1" source="fm2r5vDGzfXoW79CL8nf-14" target="wK2fXQm7fNXGbqNDt2HA-10" edge="1">
          <mxGeometry relative="1" as="geometry">
            <mxPoint x="381" y="500" as="targetPoint" />
          </mxGeometry>
        </mxCell>
        <mxCell id="KVjY1l4jC642Nahu12zt-14" value="Ya" style="edgeLabel;html=1;align=center;verticalAlign=middle;resizable=0;points=[];" parent="KVjY1l4jC642Nahu12zt-13" vertex="1" connectable="0">
          <mxGeometry x="-0.207" y="-1" relative="1" as="geometry">
            <mxPoint as="offset" />
          </mxGeometry>
        </mxCell>
        <mxCell id="fm2r5vDGzfXoW79CL8nf-14" value="Data Ada?" style="strokeWidth=2;html=1;shape=mxgraph.flowchart.decision;whiteSpace=wrap;" parent="1" vertex="1">
          <mxGeometry x="136" y="450" width="100" height="100" as="geometry" />
        </mxCell>
        <mxCell id="KVjY1l4jC642Nahu12zt-3" value="" style="verticalLabelPosition=bottom;verticalAlign=top;html=1;shape=mxgraph.flowchart.on-page_reference;" parent="1" vertex="1">
          <mxGeometry x="156" y="700" width="60" height="60" as="geometry" />
        </mxCell>
        <mxCell id="KVjY1l4jC642Nahu12zt-5" value="A4" style="text;html=1;align=center;verticalAlign=middle;resizable=0;points=[];autosize=1;strokeColor=none;fillColor=none;" parent="1" vertex="1">
          <mxGeometry x="166" y="715" width="40" height="30" as="geometry" />
        </mxCell>
        <mxCell id="KVjY1l4jC642Nahu12zt-6" value="" style="endArrow=classic;html=1;rounded=0;exitX=0.5;exitY=1;exitDx=0;exitDy=0;entryX=0.5;entryY=0;entryDx=0;entryDy=0;entryPerimeter=0;" parent="1" source="wK2fXQm7fNXGbqNDt2HA-3" target="fm2r5vDGzfXoW79CL8nf-14" edge="1">
          <mxGeometry width="50" height="50" relative="1" as="geometry">
            <mxPoint x="186.5" y="400" as="sourcePoint" />
            <mxPoint x="361" y="370" as="targetPoint" />
          </mxGeometry>
        </mxCell>
        <mxCell id="KVjY1l4jC642Nahu12zt-7" value="" style="endArrow=classic;html=1;rounded=0;exitX=0.5;exitY=1;exitDx=0;exitDy=0;exitPerimeter=0;entryX=0.5;entryY=0;entryDx=0;entryDy=0;" parent="1" source="fm2r5vDGzfXoW79CL8nf-14" target="wK2fXQm7fNXGbqNDt2HA-8" edge="1">
          <mxGeometry width="50" height="50" relative="1" as="geometry">
            <mxPoint x="311" y="420" as="sourcePoint" />
            <mxPoint x="185.9999999999999" y="600" as="targetPoint" />
          </mxGeometry>
        </mxCell>
        <mxCell id="KVjY1l4jC642Nahu12zt-8" value="" style="endArrow=classic;html=1;rounded=0;exitX=0.5;exitY=1;exitDx=0;exitDy=0;entryX=0.5;entryY=0;entryDx=0;entryDy=0;entryPerimeter=0;" parent="1" source="wK2fXQm7fNXGbqNDt2HA-8" target="KVjY1l4jC642Nahu12zt-3" edge="1">
          <mxGeometry width="50" height="50" relative="1" as="geometry">
            <mxPoint x="185.9999999999999" y="650" as="sourcePoint" />
            <mxPoint x="331" y="670" as="targetPoint" />
          </mxGeometry>
        </mxCell>
        <mxCell id="KVjY1l4jC642Nahu12zt-19" value="" style="endArrow=classic;html=1;rounded=0;exitX=1;exitY=0.5;exitDx=0;exitDy=0;entryX=0.5;entryY=1;entryDx=0;entryDy=0;entryPerimeter=0;" parent="1" source="wK2fXQm7fNXGbqNDt2HA-10" target="R4RgKZYebzPvD7GZPHWC-1" edge="1">
          <mxGeometry width="50" height="50" relative="1" as="geometry">
            <mxPoint x="615" y="470" as="sourcePoint" />
            <mxPoint x="615" y="400" as="targetPoint" />
            <Array as="points">
              <mxPoint x="620" y="500" />
            </Array>
          </mxGeometry>
        </mxCell>
        <mxCell id="KVjY1l4jC642Nahu12zt-20" value="" style="endArrow=classic;html=1;rounded=0;exitX=1;exitY=0.5;exitDx=0;exitDy=0;entryX=0.5;entryY=0;entryDx=0;entryDy=0;entryPerimeter=0;" parent="1" source="wK2fXQm7fNXGbqNDt2HA-1" target="R4RgKZYebzPvD7GZPHWC-1" edge="1">
          <mxGeometry width="50" height="50" relative="1" as="geometry">
            <mxPoint x="471" y="225" as="sourcePoint" />
            <mxPoint x="615" y="340" as="targetPoint" />
            <Array as="points">
              <mxPoint x="620" y="225" />
            </Array>
          </mxGeometry>
        </mxCell>
        <mxCell id="wK2fXQm7fNXGbqNDt2HA-1" value="Belum ada Data Pemain" style="shape=parallelogram;html=1;strokeWidth=2;perimeter=parallelogramPerimeter;whiteSpace=wrap;rounded=1;arcSize=12;size=0.23;" parent="1" vertex="1">
          <mxGeometry x="330" y="195" width="190" height="60" as="geometry" />
        </mxCell>
        <mxCell id="wK2fXQm7fNXGbqNDt2HA-3" value="&lt;span style=&quot;text-wrap: nowrap;&quot;&gt;Input Pilihan Data mana yang&lt;/span&gt;&lt;div style=&quot;text-wrap: nowrap;&quot;&gt;mau di hapus&lt;/div&gt;" style="shape=parallelogram;html=1;strokeWidth=2;perimeter=parallelogramPerimeter;whiteSpace=wrap;rounded=1;arcSize=12;size=0.23;" parent="1" vertex="1">
          <mxGeometry x="51" y="340" width="270" height="60" as="geometry" />
        </mxCell>
        <mxCell id="wK2fXQm7fNXGbqNDt2HA-8" value="Data tidak Ada" style="shape=parallelogram;html=1;strokeWidth=2;perimeter=parallelogramPerimeter;whiteSpace=wrap;rounded=1;arcSize=12;size=0.23;" parent="1" vertex="1">
          <mxGeometry x="116" y="600" width="140" height="60" as="geometry" />
        </mxCell>
        <mxCell id="wK2fXQm7fNXGbqNDt2HA-10" value="Data berhasil dihapus" style="shape=parallelogram;html=1;strokeWidth=2;perimeter=parallelogramPerimeter;whiteSpace=wrap;rounded=1;arcSize=12;size=0.23;" parent="1" vertex="1">
          <mxGeometry x="330" y="470" width="190" height="60" as="geometry" />
        </mxCell>
        <mxCell id="qSwOtgS3s1rYt9kLtmYT-2" value="" style="endArrow=classic;html=1;rounded=0;" parent="1" edge="1">
          <mxGeometry width="50" height="50" relative="1" as="geometry">
            <mxPoint x="62" y="350" as="sourcePoint" />
            <mxPoint x="122" y="350" as="targetPoint" />
          </mxGeometry>
        </mxCell>
        <mxCell id="qSwOtgS3s1rYt9kLtmYT-3" value="" style="endArrow=classic;html=1;rounded=0;" parent="1" edge="1">
          <mxGeometry width="50" height="50" relative="1" as="geometry">
            <mxPoint x="460" y="520" as="sourcePoint" />
            <mxPoint x="520" y="520" as="targetPoint" />
          </mxGeometry>
        </mxCell>
        <mxCell id="qSwOtgS3s1rYt9kLtmYT-4" value="" style="endArrow=classic;html=1;rounded=0;" parent="1" edge="1">
          <mxGeometry width="50" height="50" relative="1" as="geometry">
            <mxPoint x="216" y="650" as="sourcePoint" />
            <mxPoint x="267" y="650" as="targetPoint" />
          </mxGeometry>
        </mxCell>
        <mxCell id="qSwOtgS3s1rYt9kLtmYT-5" value="" style="endArrow=classic;html=1;rounded=0;" parent="1" edge="1">
          <mxGeometry width="50" height="50" relative="1" as="geometry">
            <mxPoint x="460" y="250" as="sourcePoint" />
            <mxPoint x="530" y="250" as="targetPoint" />
          </mxGeometry>
        </mxCell>
        <mxCell id="R4RgKZYebzPvD7GZPHWC-1" value="" style="verticalLabelPosition=bottom;verticalAlign=top;html=1;shape=mxgraph.flowchart.on-page_reference;" parent="1" vertex="1">
          <mxGeometry x="590" y="340" width="60" height="60" as="geometry" />
        </mxCell>
        <mxCell id="R4RgKZYebzPvD7GZPHWC-2" value="A1" style="text;html=1;align=center;verticalAlign=middle;resizable=0;points=[];autosize=1;strokeColor=none;fillColor=none;" parent="1" vertex="1">
          <mxGeometry x="600" y="355" width="40" height="30" as="geometry" />
        </mxCell>
      </root>
    </mxGraphModel>
  </diagram>
</mxfile>
